<svg width="24" height="24" viewBox="0 0 24 24" fill="none" xmlns="http://www.w3.org/2000/svg">
<path fill-rule="evenodd" clip-rule="evenodd" d="M12.877 15.207C9.033 15.207 5.75 15.788 5.75 18.116C5.75 20.444 9.013 21.046 12.877 21.046C16.722 21.046 20.004 20.464 20.004 18.137C20.004 15.81 16.742 15.207 12.877 15.207Z" stroke="#7B61FF" stroke-width="1.5" stroke-linecap="round" stroke-linejoin="round"/>
<path fill-rule="evenodd" clip-rule="evenodd" d="M12.8757 11.886C15.3987 11.886 17.4437 9.841 17.4437 7.318C17.4437 4.795 15.3987 2.75 12.8757 2.75C10.3537 2.75 8.30862 4.795 8.30862 7.318C8.29965 9.832 10.3297 11.877 12.8447 11.886H12.8757Z" stroke="#7B61FF" stroke-width="1.5" stroke-linecap="round" stroke-linejoin="round"/>
<path d="M4.04297 9.66992V13.6799" stroke="#7B61FF" stroke-width="1.5" stroke-linecap="round" stroke-linejoin="round"/>
<path d="M6.09 11.6738H2" stroke="#7B61FF" stroke-width="1.5" stroke-linecap="round" stroke-linejoin="round"/>
</svg>
