<svg version="1.2" xmlns="http://www.w3.org/2000/svg" viewBox="0 0 24 24" width="24" height="24">
	<title>arrow_next-svg</title>
	<style>
		.s0 { fill: #543795 } 
	</style>
	<g id="Layer">
		<path id="Layer" class="s0" d="m1.3 12.7l7 7q0.3 0.3 0.7 0.3 0.4 0 0.7-0.3 0.3-0.3 0.3-0.7 0-0.4-0.3-0.7l-5.3-5.3h17.6q0.4 0 0.7-0.3 0.3-0.3 0.3-0.7 0-0.4-0.3-0.7-0.3-0.3-0.7-0.3h-17.6l5.3-5.3q0.3-0.3 0.3-0.7 0-0.4-0.3-0.7-0.3-0.3-0.7-0.3-0.4 0-0.7 0.3l-7 7q-0.1 0.2-0.2 0.3-0.1 0.2-0.1 0.4 0 0.2 0.1 0.4 0.1 0.2 0.2 0.3z"/>
	</g>
</svg>