<svg width="29" height="29" viewBox="0 0 29 29" fill="none" xmlns="http://www.w3.org/2000/svg">
<path d="M13.574 10.6445C13.2603 10.6445 12.9594 10.5199 12.7376 10.2981C12.5158 10.0763 12.3911 9.77542 12.3911 9.46172V5.91329C12.3911 4.97218 12.0173 4.06962 11.3518 3.40416C10.6864 2.7387 9.78381 2.36485 8.8427 2.36485H5.91406C4.97296 2.36485 4.0704 2.7387 3.40494 3.40416C2.73948 4.06962 2.36562 4.97218 2.36562 5.91329V22.4727C2.36562 23.4138 2.73948 24.3163 3.40494 24.9818C4.0704 25.6472 4.97296 26.0211 5.91406 26.0211H8.8427C9.78381 26.0211 10.6864 25.6472 11.3518 24.9818C12.0173 24.3163 12.3911 23.4138 12.3911 22.4727V18.9242C12.3911 18.6105 12.5158 18.3097 12.7376 18.0878C12.9594 17.866 13.2603 17.7414 13.574 17.7414C13.8877 17.7414 14.1885 17.866 14.4103 18.0878C14.6321 18.3097 14.7568 18.6105 14.7568 18.9242V22.4727C14.7549 24.0406 14.1312 25.5438 13.0225 26.6525C11.9138 27.7612 10.4106 28.3848 8.8427 28.3867H5.91406C4.34613 28.3848 2.84296 27.7612 1.73426 26.6525C0.625568 25.5438 0.00187814 24.0406 0 22.4727L0 5.91329C0.00187814 4.34536 0.625568 2.84218 1.73426 1.73349C2.84296 0.624792 4.34613 0.00110435 5.91406 -0.000774384H8.8427C10.4106 0.00110435 11.9138 0.624792 13.0225 1.73349C14.1312 2.84218 14.7549 4.34536 14.7568 5.91329V9.46172C14.7568 9.77542 14.6321 10.0763 14.4103 10.2981C14.1885 10.5199 13.8877 10.6445 13.574 10.6445Z" fill="url(#paint0_linear_564_1823)"/>
<path d="M27.0513 16.7028L21.6269 22.1272C21.5178 22.2402 21.3873 22.3303 21.243 22.3923C21.0987 22.4542 20.9434 22.4869 20.7864 22.4882C20.6293 22.4896 20.4736 22.4597 20.3282 22.4002C20.1829 22.3407 20.0508 22.2529 19.9397 22.1418C19.8287 22.0308 19.7409 21.8987 19.6814 21.7534C19.6219 21.608 19.592 21.4522 19.5933 21.2952C19.5947 21.1381 19.6273 20.9829 19.6893 20.8386C19.7513 20.6943 19.8414 20.5638 19.9544 20.4547L24.9955 15.4124L7.10078 15.3769C6.78708 15.3769 6.48623 15.2523 6.26441 15.0304C6.04259 14.8086 5.91797 14.5078 5.91797 14.1941C5.91797 13.8804 6.04259 13.5795 6.26441 13.3577C6.48623 13.1359 6.78708 13.0112 7.10078 13.0112L25.0653 13.0479L19.952 7.93344C19.8391 7.82433 19.749 7.69381 19.687 7.5495C19.625 7.40519 19.5923 7.24998 19.591 7.09293C19.5896 6.93588 19.6195 6.78013 19.679 6.63476C19.7385 6.4894 19.8263 6.35734 19.9374 6.24628C20.0484 6.13522 20.1805 6.04739 20.3259 5.98792C20.4712 5.92845 20.627 5.89852 20.784 5.89989C20.9411 5.90125 21.0963 5.93388 21.2406 5.99587C21.3849 6.05786 21.5154 6.14797 21.6245 6.26094L27.0489 11.6853C27.7145 12.3504 28.0886 13.2527 28.089 14.1936C28.0895 15.1345 27.7162 16.0371 27.0513 16.7028Z" fill="url(#paint1_linear_564_1823)"/>
<defs>
<linearGradient id="paint0_linear_564_1823" x1="3.41473" y1="4" x2="24.8747" y2="20.1055" gradientUnits="userSpaceOnUse">
<stop stop-color="#16A6DF"/>
<stop offset="1" stop-color="#543795"/>
</linearGradient>
<linearGradient id="paint1_linear_564_1823" x1="11.0484" y1="8.23772" x2="21.7194" y2="28.8283" gradientUnits="userSpaceOnUse">
<stop stop-color="#16A6DF"/>
<stop offset="1" stop-color="#543795"/>
</linearGradient>
</defs>
</svg>
